<?xml version="1.0" encoding="utf-8"?>
<!-- Generator: Adobe Illustrator 16.0.0, SVG Export Plug-In . SVG Version: 6.00 Build 0)  -->
<!DOCTYPE svg PUBLIC "-//W3C//DTD SVG 1.1//EN" "http://www.w3.org/Graphics/SVG/1.1/DTD/svg11.dtd">
<svg version="1.1" id="Calque_1" xmlns="http://www.w3.org/2000/svg" xmlns:xlink="http://www.w3.org/1999/xlink" x="0px" y="0px"
	 width="114px" height="114px" viewBox="0 0 114 114" enable-background="new 0 0 114 114" xml:space="preserve">
<g>
	<path d="M261.809,210.115c-0.56-1.854-1.634-3.727-1.572-5.563c0.15-4.629,0.936-9.23,1.23-13.861
		c0.264-4.086-0.494-8.188-0.795-12.16c-0.832-11.024-3.082-22.57,2.887-33.143c1.457,0,2.914,0,4.373,0c0,21.575,0,43.15,0,64.727
		C265.891,210.115,263.85,210.115,261.809,210.115z"/>
	<path d="M179.589,145.391c0.681,7.057,1.397,14.107,1.993,21.17c0.079,0.944-0.173,2.199-0.768,2.871
		c-4.105,4.641-3.64,10.047-3.129,15.629c0.592,6.498,0.932,13.031,1.039,19.555c0.029,1.824-1.141,3.666-1.761,5.5
		c-1.458,0-2.915,0-4.373,0c-0.522-1.891-1.544-3.799-1.479-5.67c0.225-6.69,0.563-13.399,1.343-20.045
		c0.714-6.088-0.172-11.532-4.235-16.269c0-2.333,0-4.665,0-6.998c0.583-5.247,1.166-10.495,1.749-15.743c0.583,0,1.167,0,1.75,0
		c-0.804,6.36-0.84,12.701-0.521,19.031c0.466-0.008,0.93-0.016,1.395-0.021c0-6.336,0-12.674,0-19.01c0.583,0,1.167,0,1.749,0
		c0,6.316,0,12.633,0,18.949c0.584-0.011,1.166-0.021,1.75-0.031c0-6.307,0-12.611,0-18.918c0.291,0,0.582,0,0.874,0
		c0,6.338,0,12.676,0,19.014c0.583-0.02,1.167-0.039,1.75-0.059c0-6.318,0-12.638,0-18.955
		C179.006,145.391,179.298,145.391,179.589,145.391z"/>
	<g>
		<path d="M226.82,210.115c0.484-0.17,0.965-0.342,1.441-0.52c-0.769,0.2-1.549,0.375-2.339,0.52
			C226.223,210.115,226.521,210.115,226.82,210.115z"/>
		<path d="M219.948,144.966c-1.798,0-3.562,0.146-5.279,0.425c-0.03,0-0.063,0-0.094,0c-0.04,0.012-0.082,0.023-0.123,0.035
			c-15.522,2.616-27.351,16.119-27.351,32.387c0,15.308,10.469,28.168,24.637,31.813c0.361,0.165,0.725,0.331,1.088,0.489
			c0.382,0,0.765,0,1.146,0c1.938,0.357,3.936,0.545,5.975,0.545c2.041,0,4.039-0.188,5.977-0.545c0.79-0.145,1.57-0.317,2.34-0.52
			c14.114-3.682,24.531-16.515,24.531-31.783C252.795,159.672,238.089,144.966,219.948,144.966z M228.799,194.357
			c-6.24,3.371-12.578,3.174-18.63-0.516c-1.104-0.673-1.626-2.304-2.416-3.492c1.354,0.176,2.914-0.021,4.03,0.59
			c5.611,3.076,11.188,3.229,16.479-0.328c5.399-3.629,7.668-8.842,6.691-15.438c-0.169-1.145,0.65-2.434,1.014-3.654
			c0.785,1.021,1.783,1.946,2.291,3.09c0.45,1.018,0.357,2.274,0.456,3.057C238.35,185.275,235.218,190.889,228.799,194.357z"/>
	</g>
</g>
<g>
	<path d="M195.543,260.713c-4.277-7.6-2.818-15.546-1.47-23.505c0.915-5.403,1.713-10.826,2.567-16.239
		c0.022-0.137,0.119-0.263,0.617-1.314c0,13.771,0.01,26.625-0.035,39.48c-0.002,0.525-0.509,1.053-0.779,1.578
		C196.145,260.713,195.844,260.713,195.543,260.713z"/>
	<path d="M129.773,239.091c0.703-3.437,1.41-6.872,2.096-10.216c-0.1-0.091,0.372,0.34,1.201,1.1c0-2.019,0-3.599,0-5.18
		c0.386-0.005,0.77-0.01,1.154-0.016c0,11.65,0,23.302,0,34.951c-0.347,0.131-0.691,0.26-1.037,0.391
		c-0.77-2.484-1.852-4.924-2.233-7.467c-0.632-4.186-0.812-8.438-1.181-12.662C129.773,239.691,129.773,239.391,129.773,239.091z"/>
	<path d="M162.264,162.564c0.45-1.035,0.9-2.069,1.523-3.5c10.477,6.252,21.166,11.553,27.354,22.387
		c5.451,9.543,7.303,19.174,0.227,28.861c-0.699,0.957-1.213,2.063-1.715,3.147c-1.971,4.269-0.971,5.972,3.746,6.435
		c0.658,0.064,1.322,0.078,2.09,0.637c-1.014,0.998-1.079,3.613-3.715,0.898c-1.877-1.935-6.029-1.754-5.287-6.002
		c0.154-0.883,0.467-1.824,0.982-2.539c6.256-8.672,4.415-17.627,1.446-26.883c-2.927-9.117-9.948-14.215-17.36-18.992
		c-2.897-1.867-6.236-3.05-9.375-4.543L162.264,162.564z"/>
	<path d="M162.18,162.471c-2.527,2.004-5.08,3.977-7.578,6.016c-7.925,6.471-15.834,12.99-17.349,24.054
		c-0.815,5.957-1.272,11.772,2.647,17.206c1.645,2.275,2.281,5.49,2.66,8.373c0.176,1.335-1.355,2.896-3.184,4.291
		c1.382-7.1-3.121-11.387-5.788-16.586c-1.637-3.19-1.379-7.727-0.901-11.521c0.487-3.871,2.119-7.646,3.621-11.31
		c0.4-0.979,2.43-1.179,3.229-2.136c0.961-1.151,1.431-2.721,2.063-4.131c0.25-0.558,0.168-1.461,0.561-1.725
		c6.102-4.092,12.247-8.117,18.412-12.111c0.447-0.289,1.123-0.227,1.691-0.326L162.18,162.471z"/>
</g>
<g>
	<path fill="#0D2E6E" d="M71.021,15.133H25.428c-4.102,0-7.753,3.039-7.753,7.141v72.648h17.098V78.059
		c-1.372,0.654-2.281,1.152-2.281,1.152v-4.23c0,0,7.66-4.33,14.82-4.33c7.164,0,14.816,4.33,14.816,4.33v4.23
		c0,0-0.823-0.529-2.278-1.217v16.928h18.237V22.273C78.087,18.172,75.12,15.133,71.021,15.133z M30.214,75.545h-4.561v-4.559h4.561
		V75.545z M34.772,68.705h-9.119v-9.119h9.119V68.705z M34.772,56.168h-9.119v-9.119h9.119V56.168z M34.772,43.629h-9.119v-9.117
		h9.119V43.629z M34.772,31.09h-9.119v-9.117h9.119V31.09z M46.171,68.705h-9.117v-9.119h9.117V68.705z M46.171,56.168h-9.117
		v-9.119h9.117V56.168z M46.171,43.629h-9.117v-9.117h9.117V43.629z M46.171,31.09h-9.117v-9.117h9.117V31.09z M58.71,68.705H48.45
		v-9.119h10.26V68.705z M58.71,56.168H48.45v-9.119h10.26V56.168z M58.71,43.629H48.45v-9.117h10.26V43.629z M58.71,31.09H48.45
		v-9.117h10.26V31.09z M71.247,75.545h-4.558v-4.559h4.558V75.545z M71.247,68.705H60.988v-9.119h10.259V68.705z M71.247,56.168
		H60.988v-9.119h10.259V56.168z M71.247,43.629H60.988v-9.117h10.259V43.629z M71.247,31.09H60.988v-9.117h10.259V31.09z"/>
	<rect x="37.054" y="77.824" fill="#0D2E6E" width="20.516" height="17.098"/>
	<path fill="#0D2E6E" d="M96.325,22.938c0-2.421-1.964-4.386-4.386-4.386h-7.187c-2.423,0-4.388,1.965-4.388,4.386v56.199
		c0,2.424,1.965,4.387,4.388,4.387h7.187c2.422,0,4.386-1.963,4.386-4.387V22.938z M87.182,24.354l1.068-2.165l1.07,2.165
		l2.386,0.346l-1.728,1.684l0.405,2.382l-2.135-1.124l-2.138,1.124l0.406-2.382L84.793,24.7L87.182,24.354z M87.182,33.646
		l1.068-2.165l1.07,2.165l2.386,0.346l-1.728,1.686l0.405,2.38l-2.135-1.124l-2.138,1.124l0.406-2.38l-1.727-1.686L87.182,33.646z
		 M87.182,42.938l1.068-2.164l1.07,2.164l2.386,0.346l-1.728,1.687l0.405,2.379l-2.135-1.124l-2.138,1.124l0.406-2.379l-1.727-1.687
		L87.182,42.938z M87.182,52.209l1.068-2.165l1.07,2.165l2.386,0.348l-1.728,1.686l0.405,2.38l-2.135-1.124l-2.138,1.124l0.406-2.38
		l-1.727-1.686L87.182,52.209z M87.182,61.503l1.068-2.163l1.07,2.163l2.386,0.349l-1.728,1.685l0.405,2.379l-2.135-1.121
		l-2.138,1.121l0.406-2.379l-1.727-1.685L87.182,61.503z M92.904,77.824h-2.28v-2.279h-3.418v2.279h-2.279v-6.838h2.279v2.279h3.418
		v-2.279h2.28V77.824z"/>
</g>
<g>
	<path fill="#010202" d="M-247.583,43.297c2.52-0.774,4.965-1.312,7.222-1.678c-0.099-4.07-0.643-7.435-1.033-9.367
		c-1.614,0.597-4.224,1.674-7.185,3.292c0.492,1.915,0.826,3.908,0.946,5.959C-247.596,42.104-247.581,42.702-247.583,43.297z"/>
	<path fill="#010202" d="M-238.075,59.063c2.428-4.909,3.771-9.733,4.419-13.009c-8.909,0.384-28.164-1.635-34.789,24.5
		c-0.445,1.758-1.263,4.225-1.924,6.104C-268.328,76.373-248.577,80.281-238.075,59.063z"/>
	<path fill="#010202" d="M-234.036,58.544c-0.31,0.687-0.638,1.378-0.989,2.069c-3.896,7.658-9.212,12.998-15.872,15.98
		c19.036,2.205,35.051-9.564,35.051-9.564S-223.319,61.384-234.036,58.544z"/>
	<path fill="#010202" d="M-266.044,55.027c3.493-4.2,8.049-7.53,13.647-9.957c0.45-0.193,0.898-0.378,1.343-0.552
		c0.055-0.926,0.062-1.855,0.006-2.796c-0.726-12.391-10.423-22.843-13.776-26.106c-2.133,2.131-6.856,7.289-10.094,14.055
		c-2.549,5.325-3.665,10.468-3.362,15.403C-273.213,47.557-269.125,50.887-266.044,55.027z"/>
	<path fill="#010202" d="M-295.054,59.729c-0.078-0.146-0.149-0.291-0.224-0.438c-9.455,3.021-8.958,2.705-15.619,7.739
		c0,0,15.484,11.383,34.097,9.668C-284.501,73.799-290.628,68.107-295.054,59.729z"/>
	<path fill="#010202" d="M-296.637,45.366c0.709,3.215,2.077,7.968,4.61,12.761c4.452,8.436,10.758,13.854,18.755,16.131
		c0.185-0.512,1.266-9.127,5.204-15.716C-274.4,47.057-289.636,45.518-296.637,45.366z"/>
	<path fill="#010202" d="M-280.756,35.76c-3.128-1.744-5.896-2.886-7.586-3.511c-0.38,1.898-0.908,5.169-1.023,9.123
		c2.453,0.503,5.05,1.211,7.652,2.209C-281.724,41.013-281.412,38.401-280.756,35.76z"/>
</g>
<g>
	<path fill="#010202" d="M363.333,43.088c-1.738,0-3.149,1.412-3.149,3.156c0,1.748,1.411,3.158,3.149,3.158
		c1.749,0,3.16-1.41,3.16-3.158C366.493,44.5,365.082,43.088,363.333,43.088z"/>
	<path fill="#010202" d="M392.684,33.613v-2.981c0-6.572-1.973-12.22-5.413-16.261c-3.418-4.053-8.344-6.417-13.652-6.398
		c-5.322-0.019-10.251,2.346-13.67,6.398c-3.438,4.041-5.412,9.688-5.412,16.261v2.981h-12.548v60.499h63.253V33.613H392.684z
		 M364.426,72.027l-9.079-21.877l5.592-9.905l10.963,3.033l9.086,21.873L364.426,72.027z M386.312,33.613h-25.394v-2.981
		c0.143-10.68,5.945-16.237,12.699-16.279c6.74,0.042,12.542,5.6,12.693,16.279L386.312,33.613L386.312,33.613z"/>
</g>
<g>
	<polygon fill="#010202" points="-89.321,12.172 -134.146,37.516 -44.492,37.516 	"/>
	<rect x="-134.146" y="40.349" fill="#010202" width="89.653" height="7.057"/>
	<polygon fill="#010202" points="-45.863,92.954 -45.863,88.805 -50.537,88.805 -50.537,50.129 -62.652,50.129 -62.652,88.805 
		-72.344,88.805 -72.344,50.129 -84.459,50.129 -84.459,88.805 -94.151,88.805 -94.151,50.129 -106.267,50.129 -106.267,88.805 
		-115.959,88.805 -115.959,50.129 -128.073,50.129 -128.085,88.805 -132.774,88.805 -132.774,92.954 -136.553,92.954 
		-136.553,101.828 -42.085,101.828 -42.085,92.954 	"/>
</g>
</svg>
