<?xml version="1.0" encoding="utf-8"?>
<!-- Generator: Adobe Illustrator 16.0.0, SVG Export Plug-In . SVG Version: 6.00 Build 0)  -->
<!DOCTYPE svg PUBLIC "-//W3C//DTD SVG 1.1//EN" "http://www.w3.org/Graphics/SVG/1.1/DTD/svg11.dtd">
<svg version="1.1" id="Calque_1" xmlns="http://www.w3.org/2000/svg" xmlns:xlink="http://www.w3.org/1999/xlink" x="0px" y="0px"
	 width="114px" height="114px" viewBox="0 0 114 114" enable-background="new 0 0 114 114" xml:space="preserve">
<g>
	<path fill-rule="evenodd" clip-rule="evenodd" d="M261.808,210.115c-0.559-1.854-1.633-3.727-1.572-5.562
		c0.15-4.629,0.936-9.231,1.231-13.862c0.263-4.085-0.494-8.188-0.795-12.159c-0.832-11.025-3.082-22.571,2.886-33.143
		c1.457,0,2.915,0,4.373,0c0,21.575,0,43.15,0,64.726C265.89,210.115,263.849,210.115,261.808,210.115z"/>
	<path fill-rule="evenodd" clip-rule="evenodd" d="M179.589,145.39c0.68,7.057,1.397,14.108,1.993,21.17
		c0.079,0.945-0.173,2.2-0.767,2.871c-4.106,4.642-3.64,10.048-3.13,15.629c0.593,6.499,0.932,13.032,1.04,19.556
		c0.029,1.823-1.141,3.666-1.761,5.5c-1.458,0-2.915,0-4.373,0c-0.523-1.891-1.544-3.8-1.48-5.671
		c0.225-6.69,0.564-13.399,1.343-20.044c0.714-6.088-0.172-11.533-4.235-16.269c0-2.333,0-4.665,0-6.998
		c0.583-5.247,1.166-10.495,1.749-15.744c0.583,0,1.167,0,1.75,0c-0.804,6.361-0.84,12.702-0.521,19.032
		c0.466-0.008,0.93-0.015,1.395-0.021c0-6.337,0-12.674,0-19.011c0.583,0,1.167,0,1.749,0c0,6.317,0,12.634,0,18.95
		c0.584-0.011,1.166-0.021,1.75-0.031c0-6.307,0-12.612,0-18.919c0.291,0,0.582,0,0.874,0c0,6.338,0,12.677,0,19.015
		c0.583-0.02,1.167-0.039,1.75-0.059c0-6.318,0-12.638,0-18.956C179.006,145.39,179.298,145.39,179.589,145.39z"/>
	<g>
		<path d="M226.82,210.115c0.484-0.169,0.965-0.342,1.442-0.52c-0.769,0.201-1.549,0.375-2.339,0.52
			C226.223,210.115,226.522,210.115,226.82,210.115z"/>
		<path d="M219.948,144.966c-1.798,0-3.561,0.146-5.279,0.424c-0.031,0-0.063,0-0.094,0c-0.04,0.013-0.082,0.024-0.123,0.036
			c-15.523,2.616-27.35,16.119-27.35,32.387c0,15.307,10.469,28.167,24.637,31.813c0.361,0.165,0.724,0.331,1.087,0.49
			c0.382,0,0.765,0,1.146,0c1.938,0.356,3.936,0.544,5.976,0.544c2.041,0,4.038-0.188,5.976-0.544c0.79-0.145,1.57-0.318,2.339-0.52
			c14.115-3.682,24.532-16.515,24.532-31.783C252.795,159.672,238.089,144.966,219.948,144.966z M228.799,194.357
			c-6.241,3.371-12.579,3.174-18.63-0.515c-1.105-0.673-1.626-2.304-2.416-3.493c1.354,0.176,2.914-0.021,4.03,0.591
			c5.611,3.075,11.187,3.228,16.479-0.328c5.399-3.63,7.668-8.843,6.691-15.438c-0.169-1.144,0.65-2.433,1.014-3.654
			c0.785,1.021,1.783,1.946,2.291,3.09c0.45,1.017,0.357,2.274,0.456,3.056C238.349,185.275,235.218,190.889,228.799,194.357z"/>
	</g>
</g>
<g>
	<path fill-rule="evenodd" clip-rule="evenodd" d="M195.543,260.713c-4.277-7.599-2.819-15.546-1.47-23.505
		c0.916-5.403,1.713-10.826,2.568-16.239c0.022-0.137,0.119-0.263,0.617-1.314c0,13.771,0.009,26.625-0.035,39.479
		c-0.002,0.526-0.509,1.054-0.779,1.579C196.144,260.713,195.844,260.713,195.543,260.713z"/>
	<path fill-rule="evenodd" clip-rule="evenodd" d="M129.773,239.091c0.704-3.437,1.41-6.873,2.096-10.216
		c-0.1-0.091,0.372,0.34,1.202,1.099c0-2.018,0-3.598,0-5.179c0.385-0.005,0.769-0.01,1.154-0.015c0,11.649,0,23.301,0,34.95
		c-0.347,0.131-0.692,0.26-1.038,0.391c-0.769-2.485-1.851-4.923-2.233-7.467c-0.632-4.185-0.811-8.438-1.181-12.662
		C129.773,239.691,129.773,239.391,129.773,239.091z"/>
	<path fill-rule="evenodd" clip-rule="evenodd" d="M162.264,162.565c0.45-1.035,0.9-2.07,1.523-3.5
		c10.477,6.252,21.166,11.552,27.354,22.386c5.451,9.543,7.303,19.174,0.226,28.861c-0.699,0.957-1.213,2.064-1.714,3.148
		c-1.972,4.269-0.972,5.972,3.745,6.435c0.658,0.064,1.322,0.078,2.091,0.636c-1.015,0.998-1.08,3.613-3.716,0.898
		c-1.876-1.934-6.029-1.753-5.286-6.002c0.154-0.882,0.466-1.824,0.982-2.539c6.256-8.671,4.415-17.627,1.446-26.882
		c-2.926-9.118-9.948-14.215-17.361-18.992c-2.897-1.868-6.236-3.05-9.374-4.544L162.264,162.565z"/>
	<path fill-rule="evenodd" clip-rule="evenodd" d="M162.18,162.471c-2.527,2.003-5.08,3.976-7.578,6.016
		c-7.925,6.47-15.835,12.99-17.349,24.053c-0.815,5.957-1.273,11.772,2.648,17.206c1.644,2.276,2.28,5.49,2.66,8.373
		c0.176,1.335-1.356,2.896-3.184,4.291c1.382-7.099-3.121-11.386-5.788-16.586c-1.637-3.19-1.379-7.726-0.901-11.521
		c0.487-3.872,2.118-7.646,3.62-11.31c0.401-0.979,2.43-1.178,3.229-2.136c0.961-1.151,1.431-2.72,2.063-4.131
		c0.249-0.557,0.168-1.46,0.56-1.724c6.102-4.092,12.247-8.117,18.413-12.111c0.447-0.29,1.122-0.227,1.691-0.327
		C162.264,162.565,162.18,162.471,162.18,162.471z"/>
</g>
<g>
	<path fill="#010202" d="M71.021,15.133H25.428c-4.102,0-7.753,3.039-7.753,7.141v72.648h17.098V78.058
		c-1.372,0.655-2.281,1.153-2.281,1.153v-4.23c0,0,7.66-4.331,14.82-4.331c7.164,0,14.816,4.331,14.816,4.331v4.23
		c0,0-0.823-0.53-2.279-1.217v16.928h18.238V22.273C78.087,18.172,75.12,15.133,71.021,15.133z M30.214,75.545h-4.561v-4.559h4.561
		V75.545z M34.772,68.705h-9.119v-9.119h9.119V68.705z M34.772,56.168h-9.119v-9.119h9.119V56.168z M34.772,43.629h-9.119v-9.117
		h9.119V43.629z M34.772,31.09h-9.119v-9.117h9.119V31.09z M46.171,68.705h-9.117v-9.119h9.117V68.705z M46.171,56.168h-9.117
		v-9.119h9.117V56.168z M46.171,43.629h-9.117v-9.117h9.117V43.629z M46.171,31.09h-9.117v-9.117h9.117V31.09z M58.71,68.705H48.45
		v-9.119h10.26V68.705z M58.71,56.168H48.45v-9.119h10.26V56.168z M58.71,43.629H48.45v-9.117h10.26V43.629z M58.71,31.09H48.45
		v-9.117h10.26V31.09z M71.247,75.545h-4.558v-4.559h4.558V75.545z M71.247,68.705H60.989v-9.119h10.258V68.705z M71.247,56.168
		H60.989v-9.119h10.258V56.168z M71.247,43.629H60.989v-9.117h10.258V43.629z M71.247,31.09H60.989v-9.117h10.258V31.09z"/>
	<rect x="37.054" y="77.824" fill="#010202" width="20.516" height="17.098"/>
	<path fill="#010202" d="M96.325,22.938c0-2.421-1.964-4.386-4.386-4.386h-7.186c-2.423,0-4.388,1.965-4.388,4.386v56.199
		c0,2.423,1.965,4.386,4.388,4.386h7.186c2.422,0,4.386-1.963,4.386-4.386V22.938z M87.182,24.354l1.068-2.165l1.071,2.165
		l2.385,0.346l-1.728,1.684l0.406,2.382l-2.135-1.124l-2.137,1.124l0.406-2.382L84.793,24.7L87.182,24.354z M87.182,33.646
		l1.068-2.165l1.071,2.165l2.385,0.346l-1.728,1.686l0.406,2.38l-2.135-1.124l-2.137,1.124l0.406-2.38l-1.727-1.686L87.182,33.646z
		 M87.182,42.938l1.068-2.164l1.071,2.164l2.385,0.346l-1.728,1.687l0.406,2.379l-2.135-1.124l-2.137,1.124l0.406-2.379
		l-1.727-1.687L87.182,42.938z M87.182,52.209l1.068-2.165l1.071,2.165l2.385,0.348l-1.728,1.686l0.406,2.38l-2.135-1.124
		l-2.137,1.124l0.406-2.38l-1.727-1.686L87.182,52.209z M87.182,61.503l1.068-2.163l1.071,2.163l2.385,0.348l-1.728,1.685
		l0.406,2.379l-2.135-1.121l-2.137,1.121l0.406-2.379l-1.727-1.685L87.182,61.503z M92.905,77.824h-2.281v-2.279h-3.418v2.279
		h-2.279v-6.838h2.279v2.279h3.418v-2.279h2.281V77.824z"/>
</g>
<g>
	<path fill="#010202" d="M-247.583,43.297c2.52-0.774,4.965-1.312,7.222-1.678c-0.099-4.07-0.643-7.435-1.033-9.367
		c-1.614,0.597-4.224,1.674-7.185,3.292c0.492,1.915,0.826,3.908,0.946,5.959C-247.596,42.104-247.581,42.702-247.583,43.297z"/>
	<path fill="#010202" d="M-238.075,59.063c2.428-4.909,3.771-9.734,4.419-13.01c-8.909,0.384-28.164-1.635-34.789,24.5
		c-0.445,1.757-1.263,4.225-1.924,6.103C-268.328,76.373-248.577,80.282-238.075,59.063z"/>
	<path fill="#010202" d="M-234.036,58.544c-0.31,0.687-0.638,1.378-0.989,2.07c-3.896,7.658-9.212,12.997-15.872,15.98
		c19.036,2.205,35.051-9.565,35.051-9.565S-223.319,61.384-234.036,58.544z"/>
	<path fill="#010202" d="M-266.044,55.027c3.493-4.2,8.049-7.53,13.647-9.957c0.45-0.193,0.898-0.378,1.343-0.552
		c0.055-0.926,0.062-1.855,0.006-2.796c-0.726-12.391-10.423-22.843-13.776-26.106c-2.133,2.131-6.856,7.289-10.094,14.055
		c-2.549,5.325-3.665,10.468-3.362,15.403C-273.213,47.557-269.125,50.887-266.044,55.027z"/>
	<path fill="#010202" d="M-295.054,59.729c-0.078-0.147-0.149-0.292-0.224-0.439c-9.455,3.021-8.958,2.705-15.619,7.74
		c0,0,15.484,11.382,34.097,9.668C-284.501,73.799-290.628,68.107-295.054,59.729z"/>
	<path fill="#010202" d="M-296.637,45.366c0.709,3.215,2.077,7.968,4.61,12.761c4.452,8.435,10.758,13.854,18.755,16.131
		c0.185-0.512,1.266-9.127,5.204-15.716C-274.4,47.057-289.636,45.518-296.637,45.366z"/>
	<path fill="#010202" d="M-280.756,35.76c-3.128-1.744-5.896-2.886-7.586-3.511c-0.38,1.898-0.908,5.169-1.023,9.123
		c2.453,0.503,5.05,1.211,7.652,2.209C-281.724,41.013-281.412,38.401-280.756,35.76z"/>
</g>
<g>
	<path fill="#010202" d="M363.333,43.088c-1.738,0-3.149,1.412-3.149,3.156c0,1.748,1.411,3.158,3.149,3.158
		c1.749,0,3.16-1.41,3.16-3.158C366.493,44.5,365.082,43.088,363.333,43.088z"/>
	<path fill="#010202" d="M392.684,33.613v-2.981c0-6.572-1.973-12.22-5.413-16.261c-3.418-4.053-8.344-6.417-13.653-6.398
		c-5.322-0.019-10.251,2.346-13.67,6.398c-3.437,4.041-5.412,9.688-5.412,16.261v2.981h-12.548v60.498h63.253V33.613H392.684z
		 M364.426,72.027l-9.079-21.877l5.591-9.905l10.963,3.033l9.086,21.873L364.426,72.027z M386.312,33.613h-25.394v-2.981
		c0.143-10.68,5.945-16.237,12.699-16.279c6.74,0.042,12.542,5.6,12.694,16.279V33.613z"/>
</g>
<g>
	<polygon fill="#010202" points="-89.321,12.172 -134.146,37.516 -44.492,37.516 	"/>
	<rect x="-134.146" y="40.349" fill="#010202" width="89.653" height="7.057"/>
	<polygon fill="#010202" points="-45.863,92.954 -45.863,88.805 -50.537,88.805 -50.537,50.129 -62.652,50.129 -62.652,88.805 
		-72.344,88.805 -72.344,50.129 -84.459,50.129 -84.459,88.805 -94.151,88.805 -94.151,50.129 -106.267,50.129 -106.267,88.805 
		-115.959,88.805 -115.959,50.129 -128.073,50.129 -128.085,88.805 -132.774,88.805 -132.774,92.954 -136.553,92.954 
		-136.553,101.828 -42.085,101.828 -42.085,92.954 	"/>
</g>
</svg>
