<?xml version="1.0" encoding="utf-8"?>
<!-- Generator: Adobe Illustrator 16.0.0, SVG Export Plug-In . SVG Version: 6.00 Build 0)  -->
<!DOCTYPE svg PUBLIC "-//W3C//DTD SVG 1.1//EN" "http://www.w3.org/Graphics/SVG/1.1/DTD/svg11.dtd">
<svg version="1.1" id="Your_Icon" xmlns="http://www.w3.org/2000/svg" xmlns:xlink="http://www.w3.org/1999/xlink" x="0px" y="0px"
	 width="100px" height="100px" viewBox="0 0 100 100" enable-background="new 0 0 100 100" xml:space="preserve">
<g>
	
		<image overflow="visible" opacity="0.75" width="106" height="106" xlink:href="75AE728C.png"  transform="matrix(1 0 0 1 -2.9629 -2.9629)">
	</image>
	<g>
		<g>
			<path fill="#0F78CE" d="M85.033,4.064H15.111c-6.062,0-10.974,4.914-10.974,10.974v69.923c0,6.061,4.913,10.974,10.974,10.974
				h69.922c6.061,0,10.974-4.913,10.974-10.974V15.038C96.007,8.978,91.094,4.064,85.033,4.064z"/>
		</g>
	</g>
</g>
<path fill="#FFFFFF" d="M76.742,65.521l-22.136,7.675c-1.232,0.418-2.805,1.091-4.537,1.084c-1.744,0.007-3.174-0.62-4.543-1.084
	l-22.125-7.668V21.391h53.341V65.521z"/>
<rect x="43.532" y="37.268" fill="#0F78CE" width="13.206" height="2.972"/>
<rect x="61.133" y="37.268" fill="#0F78CE" width="13.204" height="2.972"/>
<rect x="25.808" y="37.268" fill="#0F78CE" width="13.206" height="2.972"/>
</svg>
