<?xml version="1.0" encoding="utf-8"?>
<!-- Generator: Adobe Illustrator 16.0.0, SVG Export Plug-In . SVG Version: 6.00 Build 0)  -->
<!DOCTYPE svg PUBLIC "-//W3C//DTD SVG 1.1//EN" "http://www.w3.org/Graphics/SVG/1.1/DTD/svg11.dtd">
<svg version="1.1" id="Calque_1" xmlns="http://www.w3.org/2000/svg" xmlns:xlink="http://www.w3.org/1999/xlink" x="0px" y="0px"
	 width="114px" height="114px" viewBox="0 0 114 114" enable-background="new 0 0 114 114" xml:space="preserve">
<g>
	<path d="M407.071,233.115c-0.56-1.854-1.633-3.727-1.572-5.563c0.15-4.629,0.936-9.23,1.231-13.861
		c0.263-4.086-0.494-8.188-0.796-12.16c-0.832-11.024-3.082-22.57,2.887-33.143c1.457,0,2.915,0,4.373,0c0,21.575,0,43.15,0,64.727
		C411.153,233.115,409.112,233.115,407.071,233.115z"/>
	<path d="M324.853,168.391c0.681,7.057,1.397,14.107,1.993,21.17c0.079,0.944-0.173,2.199-0.767,2.871
		c-4.106,4.641-3.64,10.047-3.13,15.629c0.593,6.498,0.932,13.031,1.04,19.555c0.028,1.824-1.142,3.666-1.762,5.5
		c-1.457,0-2.914,0-4.372,0c-0.523-1.891-1.544-3.799-1.48-5.67c0.225-6.69,0.564-13.399,1.343-20.045
		c0.714-6.088-0.172-11.532-4.234-16.269c0-2.333,0-4.665,0-6.998c0.583-5.247,1.166-10.495,1.749-15.743c0.583,0,1.167,0,1.75,0
		c-0.805,6.36-0.841,12.701-0.521,19.031c0.466-0.008,0.93-0.016,1.396-0.021c0-6.336,0-12.674,0-19.01c0.583,0,1.167,0,1.749,0
		c0,6.316,0,12.633,0,18.949c0.584-0.011,1.165-0.021,1.75-0.031c0-6.307,0-12.611,0-18.918c0.29,0,0.581,0,0.874,0
		c0,6.338,0,12.676,0,19.014c0.582-0.02,1.166-0.039,1.75-0.059c0-6.318,0-12.638,0-18.955
		C324.27,168.391,324.562,168.391,324.853,168.391z"/>
	<g>
		<path d="M372.084,233.115c0.484-0.17,0.965-0.342,1.442-0.52c-0.77,0.2-1.55,0.375-2.34,0.52
			C371.486,233.115,371.786,233.115,372.084,233.115z"/>
		<path d="M365.212,167.966c-1.798,0-3.561,0.146-5.279,0.425c-0.03,0-0.063,0-0.094,0c-0.04,0.012-0.082,0.023-0.123,0.035
			c-15.522,2.616-27.35,16.119-27.35,32.387c0,15.308,10.469,28.168,24.637,31.813c0.361,0.165,0.724,0.331,1.087,0.489
			c0.382,0,0.766,0,1.146,0c1.938,0.357,3.936,0.545,5.976,0.545c2.041,0,4.038-0.188,5.977-0.545
			c0.79-0.145,1.569-0.317,2.339-0.52c14.114-3.682,24.531-16.515,24.531-31.783C398.059,182.672,383.353,167.966,365.212,167.966z
			 M374.063,217.357c-6.241,3.371-12.579,3.174-18.631-0.516c-1.104-0.673-1.626-2.304-2.416-3.492
			c1.354,0.176,2.914-0.021,4.03,0.59c5.611,3.076,11.188,3.229,16.479-0.328c5.398-3.629,7.668-8.842,6.69-15.438
			c-0.169-1.145,0.65-2.434,1.015-3.654c0.784,1.021,1.782,1.946,2.291,3.09c0.449,1.018,0.356,2.274,0.455,3.057
			C383.612,208.275,380.481,213.889,374.063,217.357z"/>
	</g>
</g>
<g>
	<path d="M195.543,260.713c-4.277-7.6-2.818-15.546-1.47-23.505c0.915-5.403,1.713-10.826,2.567-16.239
		c0.022-0.137,0.119-0.263,0.617-1.314c0,13.771,0.01,26.625-0.035,39.48c-0.002,0.525-0.509,1.053-0.779,1.578
		C196.145,260.713,195.844,260.713,195.543,260.713z"/>
	<path d="M129.773,239.091c0.703-3.437,1.41-6.872,2.096-10.216c-0.1-0.091,0.372,0.34,1.201,1.1c0-2.019,0-3.599,0-5.18
		c0.386-0.005,0.77-0.01,1.154-0.016c0,11.65,0,23.302,0,34.951c-0.347,0.131-0.691,0.26-1.037,0.391
		c-0.77-2.484-1.852-4.924-2.233-7.467c-0.632-4.186-0.812-8.438-1.181-12.662C129.773,239.691,129.773,239.391,129.773,239.091z"/>
	<path d="M162.264,162.564c0.45-1.035,0.9-2.069,1.523-3.5c10.477,6.252,21.166,11.553,27.354,22.387
		c5.451,9.543,7.303,19.174,0.227,28.861c-0.699,0.957-1.213,2.063-1.715,3.147c-1.971,4.269-0.971,5.972,3.746,6.435
		c0.658,0.064,1.322,0.078,2.09,0.637c-1.014,0.998-1.079,3.613-3.715,0.898c-1.877-1.935-6.029-1.754-5.287-6.002
		c0.154-0.883,0.467-1.824,0.982-2.539c6.256-8.672,4.415-17.627,1.446-26.883c-2.927-9.117-9.948-14.215-17.36-18.992
		c-2.897-1.867-6.236-3.05-9.375-4.543L162.264,162.564z"/>
	<path d="M162.18,162.471c-2.527,2.004-5.08,3.977-7.578,6.016c-7.925,6.471-15.834,12.99-17.349,24.054
		c-0.815,5.957-1.272,11.772,2.647,17.206c1.645,2.275,2.281,5.49,2.66,8.373c0.176,1.335-1.355,2.896-3.184,4.291
		c1.382-7.1-3.121-11.387-5.788-16.586c-1.637-3.19-1.379-7.727-0.901-11.521c0.487-3.871,2.119-7.646,3.621-11.31
		c0.4-0.979,2.43-1.179,3.229-2.136c0.961-1.151,1.431-2.721,2.063-4.131c0.25-0.558,0.168-1.461,0.561-1.725
		c6.102-4.092,12.247-8.117,18.412-12.111c0.447-0.289,1.123-0.227,1.691-0.326L162.18,162.471z"/>
</g>
<g>
	<path fill="#010202" d="M82.326,270.223H36.733c-4.102,0-7.753,3.039-7.753,7.141v72.648h17.098v-16.863
		c-1.372,0.654-2.281,1.152-2.281,1.152v-4.23c0,0,7.66-4.33,14.82-4.33c7.164,0,14.816,4.33,14.816,4.33v4.23
		c0,0-0.824-0.529-2.279-1.217v16.928h18.238v-72.648C89.393,273.262,86.426,270.223,82.326,270.223z M41.52,330.635h-4.561v-4.559
		h4.561V330.635z M46.078,323.795h-9.119v-9.119h9.119V323.795z M46.078,311.258h-9.119v-9.119h9.119V311.258z M46.078,298.719
		h-9.119v-9.117h9.119V298.719z M46.078,286.18h-9.119v-9.117h9.119V286.18z M57.477,323.795H48.36v-9.119h9.117V323.795z
		 M57.477,311.258H48.36v-9.119h9.117V311.258z M57.477,298.719H48.36v-9.117h9.117V298.719z M57.477,286.18H48.36v-9.117h9.117
		V286.18z M70.016,323.795h-10.26v-9.119h10.26V323.795z M70.016,311.258h-10.26v-9.119h10.26V311.258z M70.016,298.719h-10.26
		v-9.117h10.26V298.719z M70.016,286.18h-10.26v-9.117h10.26V286.18z M82.553,330.635h-4.558v-4.559h4.558V330.635z M82.553,323.795
		H72.295v-9.119h10.258V323.795z M82.553,311.258H72.295v-9.119h10.258V311.258z M82.553,298.719H72.295v-9.117h10.258V298.719z
		 M82.553,286.18H72.295v-9.117h10.258V286.18z"/>
	<rect x="48.359" y="332.914" fill="#010202" width="20.516" height="17.098"/>
	<path fill="#010202" d="M107.631,278.027c0-2.42-1.964-4.385-4.386-4.385h-7.185c-2.424,0-4.389,1.965-4.389,4.385v56.199
		c0,2.424,1.965,4.387,4.389,4.387h7.186c2.422,0,4.386-1.963,4.386-4.387L107.631,278.027L107.631,278.027z M98.486,279.443
		l1.068-2.164l1.071,2.164l2.386,0.347l-1.729,1.685l0.406,2.381l-2.135-1.123l-2.138,1.123l0.406-2.381l-1.728-1.685
		L98.486,279.443z M98.486,288.736l1.068-2.166l1.071,2.166l2.386,0.346l-1.729,1.686l0.406,2.381l-2.135-1.125l-2.138,1.125
		l0.406-2.381l-1.728-1.686L98.486,288.736z M98.486,298.027l1.068-2.164l1.071,2.164l2.386,0.347l-1.729,1.687l0.406,2.379
		l-2.135-1.123l-2.138,1.123l0.406-2.379l-1.728-1.687L98.486,298.027z M98.486,307.299l1.068-2.164l1.071,2.164l2.386,0.348
		l-1.729,1.687l0.406,2.38l-2.135-1.124l-2.138,1.124l0.406-2.38l-1.728-1.687L98.486,307.299z M98.486,316.594l1.068-2.164
		l1.071,2.164l2.386,0.348l-1.729,1.685l0.406,2.379l-2.135-1.121l-2.138,1.121l0.406-2.379l-1.728-1.685L98.486,316.594z
		 M104.211,332.914h-2.281v-2.279h-3.418v2.279h-2.279v-6.838h2.279v2.279h3.418v-2.279h2.281V332.914z"/>
</g>
<g>
	<path fill="#010202" d="M657.591-198.412c2.521-0.774,4.965-1.312,7.221-1.678c-0.098-4.07-0.643-7.435-1.032-9.367
		c-1.613,0.597-4.224,1.674-7.185,3.292c0.492,1.915,0.826,3.908,0.945,5.959C657.577-199.604,657.593-199.007,657.591-198.412z"/>
	<path fill="#010202" d="M667.099-182.646c2.429-4.909,3.771-9.734,4.42-13.01c-8.909,0.384-28.164-1.635-34.789,24.5
		c-0.444,1.757-1.264,4.225-1.924,6.103C636.847-165.336,656.597-161.427,667.099-182.646z"/>
	<path fill="#010202" d="M671.138-183.165c-0.309,0.687-0.637,1.378-0.987,2.07c-3.896,7.658-9.214,12.997-15.873,15.98
		c19.037,2.205,35.051-9.565,35.051-9.565S681.854-180.325,671.138-183.165z"/>
	<path fill="#010202" d="M639.13-186.682c3.492-4.2,8.049-7.53,13.646-9.957c0.45-0.193,0.897-0.378,1.344-0.552
		c0.055-0.926,0.061-1.855,0.006-2.796c-0.727-12.391-10.424-22.843-13.777-26.106c-2.133,2.131-6.854,7.289-10.094,14.055
		c-2.549,5.325-3.664,10.468-3.361,15.403C631.96-194.152,636.048-190.822,639.13-186.682z"/>
	<path fill="#010202" d="M610.12-181.98c-0.078-0.147-0.15-0.292-0.225-0.439c-9.455,3.021-8.957,2.705-15.619,7.74
		c0,0,15.483,11.382,34.098,9.668C620.673-167.91,614.546-173.602,610.12-181.98z"/>
	<path fill="#010202" d="M608.536-196.343c0.709,3.215,2.078,7.968,4.611,12.761c4.45,8.435,10.758,13.854,18.754,16.131
		c0.186-0.512,1.266-9.127,5.205-15.716C630.774-194.652,615.538-196.191,608.536-196.343z"/>
	<path fill="#010202" d="M624.417-205.949c-3.127-1.744-5.896-2.886-7.586-3.511c-0.379,1.898-0.908,5.169-1.023,9.123
		c2.453,0.503,5.052,1.211,7.652,2.209C623.45-200.696,623.763-203.308,624.417-205.949z"/>
</g>
<g>
	<path fill="#010202" d="M-188.28,135.186c-1.738,0-3.149,1.412-3.149,3.155c0,1.748,1.411,3.158,3.149,3.158
		c1.749,0,3.16-1.41,3.16-3.158C-185.12,136.598-186.531,135.186-188.28,135.186z"/>
	<path fill="#010202" d="M-158.93,125.71v-2.981c0-6.572-1.973-12.22-5.413-16.26c-3.418-4.054-8.344-6.418-13.653-6.398
		c-5.322-0.02-10.251,2.346-13.67,6.398c-3.437,4.04-5.412,9.688-5.412,16.26v2.981h-12.548v60.498h63.253V125.71H-158.93z
		 M-187.188,164.124l-9.079-21.877l5.591-9.905l10.963,3.033l9.086,21.873L-187.188,164.124z M-165.302,125.71h-25.394v-2.981
		c0.143-10.68,5.945-16.236,12.699-16.278c6.74,0.042,12.542,5.6,12.694,16.278v2.981H-165.302z"/>
</g>
<g>
	<polygon fill="#0D2E6E" points="57.997,5.301 13.173,30.645 102.826,30.645 	"/>
	<rect x="13.173" y="33.478" fill="#0D2E6E" width="89.653" height="7.057"/>
	<polygon fill="#0D2E6E" points="101.455,86.083 101.455,81.934 96.781,81.934 96.781,43.258 84.666,43.258 84.666,81.934 
		74.975,81.934 74.975,43.258 62.859,43.258 62.859,81.934 53.167,81.934 53.167,43.258 41.052,43.258 41.052,81.934 31.359,81.934 
		31.359,43.258 19.245,43.258 19.233,81.934 14.544,81.934 14.544,86.083 10.766,86.083 10.766,94.957 105.232,94.957 
		105.232,86.083 	"/>
</g>
</svg>
