<?xml version="1.0" encoding="utf-8"?>
<!-- Generator: Adobe Illustrator 16.0.0, SVG Export Plug-In . SVG Version: 6.00 Build 0)  -->
<!DOCTYPE svg PUBLIC "-//W3C//DTD SVG 1.1//EN" "http://www.w3.org/Graphics/SVG/1.1/DTD/svg11.dtd">
<svg version="1.1" id="Calque_1" xmlns="http://www.w3.org/2000/svg" xmlns:xlink="http://www.w3.org/1999/xlink" x="0px" y="0px"
	 width="114px" height="114px" viewBox="0 0 114 114" enable-background="new 0 0 114 114" xml:space="preserve">
<g>
	<path fill-rule="evenodd" clip-rule="evenodd" d="M-261.123,192.491c-0.559-1.854-1.633-3.727-1.572-5.562
		c0.15-4.629,0.936-9.231,1.231-13.862c0.263-4.085-0.494-8.188-0.795-12.159c-0.832-11.025-3.082-22.571,2.886-33.143
		c1.457,0,2.915,0,4.373,0c0,21.575,0,43.15,0,64.726C-257.041,192.491-259.082,192.491-261.123,192.491z"/>
	<path fill-rule="evenodd" clip-rule="evenodd" d="M-343.342,127.766c0.68,7.057,1.397,14.108,1.993,21.17
		c0.079,0.945-0.173,2.2-0.767,2.871c-4.106,4.642-3.64,10.048-3.13,15.629c0.593,6.499,0.932,13.032,1.04,19.556
		c0.029,1.823-1.141,3.666-1.761,5.5c-1.458,0-2.915,0-4.373,0c-0.523-1.891-1.544-3.8-1.48-5.671
		c0.225-6.69,0.564-13.399,1.343-20.044c0.714-6.088-0.172-11.533-4.235-16.269c0-2.333,0-4.665,0-6.998
		c0.583-5.247,1.166-10.495,1.749-15.744c0.583,0,1.167,0,1.75,0c-0.804,6.361-0.84,12.702-0.521,19.032
		c0.466-0.008,0.93-0.015,1.395-0.021c0-6.337,0-12.674,0-19.011c0.583,0,1.167,0,1.749,0c0,6.317,0,12.634,0,18.95
		c0.584-0.011,1.166-0.021,1.75-0.031c0-6.307,0-12.612,0-18.919c0.291,0,0.582,0,0.874,0c0,6.338,0,12.677,0,19.015
		c0.583-0.02,1.167-0.039,1.75-0.059c0-6.318,0-12.638,0-18.956C-343.925,127.766-343.633,127.766-343.342,127.766z"/>
	<g>
		<path d="M-296.11,192.491c0.484-0.169,0.965-0.342,1.442-0.52c-0.769,0.201-1.549,0.375-2.339,0.52
			C-296.708,192.491-296.408,192.491-296.11,192.491z"/>
		<path d="M-302.982,127.342c-1.798,0-3.561,0.146-5.279,0.424c-0.031,0-0.063,0-0.094,0c-0.04,0.013-0.082,0.024-0.123,0.036
			c-15.523,2.616-27.35,16.119-27.35,32.387c0,15.307,10.469,28.167,24.637,31.813c0.361,0.165,0.724,0.331,1.087,0.49
			c0.382,0,0.765,0,1.146,0c1.938,0.356,3.936,0.544,5.976,0.544c2.041,0,4.038-0.188,5.976-0.544c0.79-0.145,1.57-0.318,2.339-0.52
			c14.115-3.682,24.532-16.515,24.532-31.783C-270.136,142.048-284.842,127.342-302.982,127.342z M-294.132,176.733
			c-6.241,3.371-12.579,3.174-18.63-0.515c-1.105-0.673-1.626-2.304-2.416-3.493c1.354,0.176,2.914-0.021,4.03,0.591
			c5.611,3.075,11.187,3.228,16.479-0.328c5.399-3.63,7.668-8.843,6.691-15.438c-0.169-1.144,0.65-2.433,1.014-3.654
			c0.785,1.021,1.783,1.946,2.291,3.09c0.45,1.017,0.357,2.274,0.456,3.056C-284.582,167.651-287.713,173.265-294.132,176.733z"/>
	</g>
</g>
<g>
	<path fill-rule="evenodd" clip-rule="evenodd" d="M89.417,107.516c-4.277-7.599-2.819-15.546-1.47-23.505
		c0.916-5.403,1.713-10.826,2.568-16.239c0.022-0.137,0.119-0.263,0.617-1.314c0,13.771,0.009,26.625-0.035,39.479
		c-0.002,0.526-0.509,1.054-0.779,1.579C90.018,107.516,89.718,107.516,89.417,107.516z"/>
	<path fill-rule="evenodd" clip-rule="evenodd" d="M23.647,85.894c0.704-3.437,1.41-6.873,2.096-10.216
		c-0.1-0.091,0.372,0.34,1.202,1.099c0-2.018,0-3.598,0-5.179c0.385-0.005,0.769-0.01,1.154-0.015c0,11.649,0,23.301,0,34.95
		c-0.347,0.131-0.692,0.26-1.038,0.391c-0.769-2.485-1.851-4.923-2.233-7.467c-0.632-4.185-0.811-8.438-1.181-12.662
		C23.647,86.494,23.647,86.193,23.647,85.894z"/>
	<path fill-rule="evenodd" clip-rule="evenodd" d="M56.138,9.368c0.45-1.035,0.9-2.07,1.523-3.5
		C68.138,12.12,78.827,17.42,85.015,28.254c5.451,9.543,7.303,19.174,0.226,28.861c-0.699,0.957-1.213,2.064-1.714,3.148
		c-1.972,4.269-0.972,5.972,3.745,6.435c0.658,0.064,1.322,0.078,2.091,0.636c-1.015,0.998-1.08,3.613-3.716,0.898
		c-1.876-1.934-6.029-1.753-5.286-6.002c0.154-0.882,0.466-1.824,0.982-2.539c6.256-8.671,4.415-17.627,1.446-26.882
		c-2.926-9.118-9.948-14.215-17.361-18.992c-2.897-1.868-6.236-3.05-9.374-4.544L56.138,9.368z"/>
	<path fill-rule="evenodd" clip-rule="evenodd" d="M56.054,9.273c-2.527,2.003-5.08,3.976-7.578,6.016
		c-7.925,6.47-15.835,12.99-17.349,24.053c-0.815,5.957-1.273,11.772,2.648,17.206c1.644,2.276,2.28,5.49,2.66,8.373
		c0.176,1.335-1.356,2.896-3.184,4.291c1.382-7.099-3.121-11.386-5.788-16.586c-1.637-3.19-1.379-7.726-0.901-11.521
		c0.487-3.872,2.118-7.646,3.62-11.31c0.401-0.979,2.43-1.178,3.229-2.136c0.961-1.151,1.431-2.72,2.063-4.131
		c0.249-0.557,0.168-1.46,0.56-1.724c6.102-4.092,12.247-8.117,18.413-12.111c0.447-0.29,1.122-0.227,1.691-0.327
		C56.138,9.368,56.054,9.273,56.054,9.273z"/>
</g>
<g>
	<path fill="#010202" d="M250.605,12.227h-45.593c-4.102,0-7.753,3.039-7.753,7.141v72.648h17.098V75.151
		c-1.372,0.655-2.281,1.153-2.281,1.153v-4.23c0,0,7.66-4.331,14.82-4.331c7.164,0,14.816,4.331,14.816,4.331v4.23
		c0,0-0.823-0.53-2.279-1.217v16.928h18.238V19.367C257.672,15.266,254.705,12.227,250.605,12.227z M209.799,72.639h-4.561V68.08
		h4.561V72.639z M214.357,65.799h-9.119V56.68h9.119V65.799z M214.357,53.262h-9.119v-9.119h9.119V53.262z M214.357,40.723h-9.119
		v-9.117h9.119V40.723z M214.357,28.184h-9.119v-9.117h9.119V28.184z M225.756,65.799h-9.117V56.68h9.117V65.799z M225.756,53.262
		h-9.117v-9.119h9.117V53.262z M225.756,40.723h-9.117v-9.117h9.117V40.723z M225.756,28.184h-9.117v-9.117h9.117V28.184z
		 M238.295,65.799h-10.26V56.68h10.26V65.799z M238.295,53.262h-10.26v-9.119h10.26V53.262z M238.295,40.723h-10.26v-9.117h10.26
		V40.723z M238.295,28.184h-10.26v-9.117h10.26V28.184z M250.832,72.639h-4.558V68.08h4.558V72.639z M250.832,65.799h-10.258V56.68
		h10.258V65.799z M250.832,53.262h-10.258v-9.119h10.258V53.262z M250.832,40.723h-10.258v-9.117h10.258V40.723z M250.832,28.184
		h-10.258v-9.117h10.258V28.184z"/>
	<rect x="216.639" y="74.918" fill="#010202" width="20.516" height="17.098"/>
	<path fill="#010202" d="M275.91,20.032c0-2.421-1.964-4.386-4.386-4.386h-7.186c-2.423,0-4.388,1.965-4.388,4.386v56.199
		c0,2.423,1.965,4.386,4.388,4.386h7.186c2.422,0,4.386-1.963,4.386-4.386V20.032z M266.767,21.448l1.068-2.165l1.071,2.165
		l2.385,0.346l-1.728,1.684l0.406,2.382l-2.135-1.124l-2.137,1.124l0.406-2.382l-1.727-1.684L266.767,21.448z M266.767,30.74
		l1.068-2.165l1.071,2.165l2.385,0.346l-1.728,1.686l0.406,2.38l-2.135-1.124l-2.137,1.124l0.406-2.38l-1.727-1.686L266.767,30.74z
		 M266.767,40.032l1.068-2.164l1.071,2.164l2.385,0.346l-1.728,1.687l0.406,2.379l-2.135-1.124l-2.137,1.124l0.406-2.379
		l-1.727-1.687L266.767,40.032z M266.767,49.303l1.068-2.165l1.071,2.165l2.385,0.348l-1.728,1.686l0.406,2.38l-2.135-1.124
		l-2.137,1.124l0.406-2.38l-1.727-1.686L266.767,49.303z M266.767,58.597l1.068-2.163l1.071,2.163l2.385,0.348l-1.728,1.685
		l0.406,2.379l-2.135-1.121l-2.137,1.121l0.406-2.379l-1.727-1.685L266.767,58.597z M272.49,74.918h-2.281v-2.279h-3.418v2.279
		h-2.279V68.08h2.279v2.279h3.418V68.08h2.281V74.918z"/>
</g>
<g>
	<path fill="#010202" d="M-168.29,40.14c2.52-0.774,4.965-1.312,7.222-1.678c-0.099-4.07-0.643-7.435-1.033-9.367
		c-1.614,0.597-4.224,1.674-7.185,3.292c0.492,1.915,0.826,3.908,0.946,5.959C-168.303,38.947-168.287,39.545-168.29,40.14z"/>
	<path fill="#010202" d="M-158.781,55.905c2.428-4.909,3.771-9.734,4.419-13.01c-8.909,0.384-28.164-1.635-34.789,24.5
		c-0.445,1.757-1.263,4.225-1.924,6.103C-189.034,73.216-169.283,77.125-158.781,55.905z"/>
	<path fill="#010202" d="M-154.742,55.387c-0.31,0.687-0.638,1.378-0.989,2.07c-3.896,7.658-9.212,12.997-15.872,15.98
		c19.036,2.205,35.051-9.565,35.051-9.565S-144.025,58.227-154.742,55.387z"/>
	<path fill="#010202" d="M-186.751,51.87c3.493-4.2,8.049-7.53,13.647-9.957c0.45-0.193,0.898-0.378,1.343-0.552
		c0.055-0.926,0.062-1.855,0.006-2.796c-0.726-12.391-10.423-22.843-13.776-26.106c-2.133,2.131-6.856,7.289-10.094,14.055
		c-2.549,5.325-3.665,10.468-3.362,15.403C-193.92,44.399-189.832,47.729-186.751,51.87z"/>
	<path fill="#010202" d="M-215.761,56.571c-0.078-0.147-0.149-0.292-0.224-0.439c-9.455,3.021-8.958,2.705-15.619,7.74
		c0,0,15.484,11.382,34.097,9.668C-205.208,70.642-211.335,64.95-215.761,56.571z"/>
	<path fill="#010202" d="M-217.344,42.209c0.709,3.215,2.077,7.968,4.61,12.761c4.452,8.435,10.758,13.854,18.755,16.131
		c0.185-0.512,1.266-9.127,5.204-15.716C-195.106,43.899-210.343,42.36-217.344,42.209z"/>
	<path fill="#010202" d="M-201.463,32.603c-3.128-1.744-5.896-2.886-7.586-3.511c-0.38,1.898-0.908,5.169-1.023,9.123
		c2.453,0.503,5.05,1.211,7.652,2.209C-202.431,37.855-202.118,35.244-201.463,32.603z"/>
</g>
<g>
	<path fill="#010202" d="M363.333,43.088c-1.738,0-3.149,1.412-3.149,3.156c0,1.748,1.411,3.158,3.149,3.158
		c1.749,0,3.16-1.41,3.16-3.158C366.493,44.5,365.082,43.088,363.333,43.088z"/>
	<path fill="#010202" d="M392.684,33.613v-2.981c0-6.572-1.973-12.22-5.413-16.261c-3.418-4.053-8.344-6.417-13.653-6.398
		c-5.322-0.019-10.251,2.346-13.67,6.398c-3.437,4.041-5.412,9.688-5.412,16.261v2.981h-12.548v60.498h63.253V33.613H392.684z
		 M364.426,72.027l-9.079-21.877l5.591-9.905l10.963,3.033l9.086,21.873L364.426,72.027z M386.312,33.613h-25.394v-2.981
		c0.143-10.68,5.945-16.237,12.699-16.279c6.74,0.042,12.542,5.6,12.694,16.279V33.613z"/>
</g>
<g>
	<polygon fill="#010202" points="-0.002,191.972 -44.826,217.315 44.827,217.315 	"/>
	<rect x="-44.826" y="220.148" fill="#010202" width="89.653" height="7.057"/>
	<polygon fill="#010202" points="43.456,272.754 43.456,268.604 38.782,268.604 38.782,229.929 26.667,229.929 26.667,268.604 
		16.976,268.604 16.976,229.929 4.86,229.929 4.86,268.604 -4.832,268.604 -4.832,229.929 -16.947,229.929 -16.947,268.604 
		-26.64,268.604 -26.64,229.929 -38.754,229.929 -38.766,268.604 -43.455,268.604 -43.455,272.754 -47.233,272.754 -47.233,281.628 
		47.234,281.628 47.234,272.754 	"/>
</g>
</svg>
